<svg width="72" height="28" viewBox="0 0 72 28" fill="none" xmlns="http://www.w3.org/2000/svg">
<path d="M34.2123 13.6798V21.8875H31.5903V1.61806H38.5443C39.3743 1.60084 40.1996 1.74704 40.9724 2.04822C41.7453 2.34939 42.4505 2.79958 43.0472 3.37281C43.65 3.91124 44.1297 4.57156 44.4541 5.3094C44.7786 6.04724 44.9402 6.84549 44.9282 7.65052C44.9454 8.45986 44.7863 9.26333 44.4616 10.0059C44.1369 10.7484 43.6545 11.4125 43.0472 11.9525C41.8312 13.104 40.3302 13.6792 38.5443 13.6781H34.2123V13.6798ZM34.2123 4.11353V11.1891H38.6094C39.0914 11.2033 39.5712 11.1174 40.0179 10.937C40.4646 10.7565 40.8685 10.4855 41.2037 10.1411C41.5371 9.8192 41.8022 9.43413 41.9832 9.0087C42.1642 8.58326 42.2574 8.12611 42.2574 7.66427C42.2574 7.20243 42.1642 6.74527 41.9832 6.31984C41.8022 5.89441 41.5371 5.50934 41.2037 5.1874C40.8727 4.83582 40.4702 4.55811 40.023 4.3727C39.5757 4.18728 39.0939 4.09839 38.6094 4.11191H34.2123V4.11353Z" fill="#5F6368"/>
<path d="M50.9698 7.56641C52.9077 7.56641 54.4375 8.0807 55.559 9.10929C56.6806 10.1379 57.2408 11.5482 57.2397 13.3401V21.8874H54.7317V19.9629H54.6177C53.532 21.5478 52.088 22.3403 50.2858 22.3403C48.7473 22.3403 47.4602 21.8874 46.4245 20.9818C45.9274 20.5661 45.53 20.0455 45.2612 19.4579C44.9925 18.8704 44.8591 18.2307 44.8708 17.5855C44.8708 16.1504 45.4169 15.0091 46.5092 14.1617C47.6014 13.3142 49.0595 12.8894 50.8834 12.8873C52.4403 12.8873 53.7226 13.1703 54.7301 13.7363V13.1412C54.7331 12.7013 54.6374 12.2663 54.4501 11.8677C54.2628 11.4691 53.9885 11.1168 53.6471 10.8366C52.9537 10.2153 52.0501 9.87635 51.1163 9.88721C49.6517 9.88721 48.4927 10.5007 47.6394 11.7277L45.3301 10.2834C46.6004 8.47208 48.4802 7.56641 50.9698 7.56641ZM47.5775 17.6421C47.5757 17.9735 47.6537 18.3005 47.805 18.5958C47.9563 18.8912 48.1764 19.1464 48.4471 19.3402C49.027 19.7932 49.7468 20.0332 50.4845 20.0195C51.5909 20.0176 52.6515 19.5803 53.4338 18.8033C54.3023 17.9914 54.7366 17.0388 54.7366 15.9455C53.9191 15.2986 52.7791 14.9752 51.3166 14.9752C50.2516 14.9752 49.3635 15.2302 48.6523 15.7401C47.9341 16.2577 47.5775 16.8868 47.5775 17.6421Z" fill="#5F6368"/>
<path d="M71.6362 8.01929L62.8811 28.0008H60.1745L63.4234 21.0093L57.6665 8.01929H60.5165L64.6774 17.9817H64.7344L68.7814 8.01929H71.6362Z" fill="#5F6368"/>
<path d="M23.6167 11.9104C23.6177 11.1169 23.5501 10.3248 23.4148 9.54272H12.3569V14.0274H18.6903C18.5607 14.7437 18.2864 15.4265 17.884 16.0347C17.4815 16.6428 16.9592 17.1638 16.3485 17.5661V20.4772H20.1283C22.3416 18.4507 23.6167 15.4539 23.6167 11.9104Z" fill="#4285F4"/>
<path d="M12.3569 23.2896C15.5212 23.2896 18.1855 22.2578 20.1284 20.4788L16.3485 17.5677C15.2965 18.276 13.9415 18.6803 12.3569 18.6803C9.29851 18.6803 6.70259 16.6329 5.77432 13.8738H1.88045V16.8738C2.85639 18.8024 4.35288 20.4237 6.20286 21.5566C8.05283 22.6895 10.1835 23.2895 12.3569 23.2896Z" fill="#34A853"/>
<path d="M5.77427 13.8738C5.28352 12.428 5.28352 10.8623 5.77427 9.41656V6.4165H1.8804C1.05941 8.03889 0.631836 9.82945 0.631836 11.6452C0.631836 13.4609 1.05941 15.2515 1.8804 16.8738L5.77427 13.8738Z" fill="#FBBC04"/>
<path d="M12.3569 4.61002C14.0291 4.58289 15.6449 5.21031 16.855 6.35668L20.2017 3.03317C18.0795 1.05374 15.2682 -0.0330033 12.3569 0.000763984C10.1835 0.000862355 8.05283 0.600864 6.20286 1.73378C4.35288 2.8667 2.85639 4.48795 1.88045 6.41652L5.77432 9.41658C6.70259 6.6575 9.29851 4.61002 12.3569 4.61002Z" fill="#EA4335"/>
</svg>
