<svg width="86" height="94" viewBox="0 0 86 94" fill="none" xmlns="http://www.w3.org/2000/svg">
<path fill-rule="evenodd" clip-rule="evenodd" d="M43.3004 0.00245968C56.8778 -0.191356 67.0672 11.1024 75.1397 22.0073C82.7522 32.2908 87.6598 44.3791 85.48 56.9813C83.1462 70.4729 75.6887 82.9927 63.5051 89.2688C50.9403 95.7413 35.7906 95.4757 23.1928 89.0674C10.9213 82.8251 2.54703 70.7338 0.369179 57.1527C-1.64987 44.562 4.92029 33.1001 12.5823 22.9003C20.6495 12.1612 29.8593 0.19433 43.3004 0.00245968Z" fill="url(#paint0_linear_28_59)"/>
<path d="M53.2092 38.34C53.2092 39.86 52.9092 41.32 52.3092 42.72C51.7092 44.12 50.9292 45.48 49.9692 46.8C49.0092 48.08 47.9292 49.32 46.7292 50.52C45.5292 51.72 44.3492 52.86 43.1892 53.94C42.5892 54.5 41.9292 55.14 41.2092 55.86C40.5292 56.54 39.8692 57.24 39.2292 57.96C38.5892 58.68 38.0092 59.36 37.4892 60C37.0092 60.6 36.7092 61.1 36.5892 61.5H54.4692V69H26.7492C26.6692 68.56 26.6292 68 26.6292 67.32C26.6292 66.64 26.6292 66.16 26.6292 65.88C26.6292 63.96 26.9292 62.2 27.5292 60.6C28.1692 59 28.9892 57.52 29.9892 56.16C30.9892 54.76 32.1092 53.46 33.3492 52.26C34.6292 51.06 35.8892 49.86 37.1292 48.66C38.0892 47.74 38.9892 46.88 39.8292 46.08C40.6692 45.24 41.4092 44.44 42.0492 43.68C42.6892 42.88 43.1892 42.1 43.5492 41.34C43.9092 40.54 44.0892 39.74 44.0892 38.94C44.0892 37.18 43.5892 35.94 42.5892 35.22C41.5892 34.5 40.3492 34.14 38.8692 34.14C37.7892 34.14 36.7692 34.32 35.8092 34.68C34.8892 35 34.0292 35.4 33.2292 35.88C32.4692 36.32 31.8092 36.78 31.2492 37.26C30.6892 37.7 30.2692 38.06 29.9892 38.34L25.5492 32.1C27.3092 30.46 29.3492 29.12 31.6692 28.08C34.0292 27 36.5492 26.46 39.2292 26.46C41.6692 26.46 43.7692 26.74 45.5292 27.3C47.2892 27.86 48.7292 28.66 49.8492 29.7C51.0092 30.7 51.8492 31.94 52.3692 33.42C52.9292 34.86 53.2092 36.5 53.2092 38.34Z" fill="white"/>
<defs>
<linearGradient id="paint0_linear_28_59" x1="3.70199" y1="28.2" x2="89.0847" y2="29.7415" gradientUnits="userSpaceOnUse">
<stop stop-color="#24C74B"/>
<stop offset="1" stop-color="#54F079"/>
</linearGradient>
</defs>
</svg>
