<svg width="86" height="92" viewBox="0 0 86 92" fill="none" xmlns="http://www.w3.org/2000/svg">
<path fill-rule="evenodd" clip-rule="evenodd" d="M39.7727 0.0195964C51.785 0.441179 61.0796 9.52941 69.062 19.2295C77.8351 29.8902 88.0818 41.7332 85.6315 55.7459C83.1175 70.1226 69.9201 78.3119 57.6462 84.5145C45.5921 90.6061 31.8366 95.3506 19.9187 88.9542C8.1287 82.6264 3.17817 68.027 0.856547 54.0352C-1.30537 41.0059 0.466277 27.5345 7.99388 17.0862C15.6361 6.47884 27.3317 -0.41703 39.7727 0.0195964Z" fill="url(#paint0_linear_2_263)"/>
<path d="M27.6492 35.06C28.8092 34.58 30.0092 34.04 31.2492 33.44C32.5292 32.8 33.7692 32.12 34.9692 31.4C36.1692 30.64 37.3092 29.86 38.3892 29.06C39.5092 28.22 40.5092 27.34 41.3892 26.42H47.6292V68H38.6892V38.06C37.4892 38.86 36.1492 39.6 34.6692 40.28C33.1892 40.92 31.7492 41.48 30.3492 41.96L27.6492 35.06Z" fill="white"/>
<defs>
<linearGradient id="paint0_linear_2_263" x1="3.70199" y1="27.6" x2="89.0835" y2="29.175" gradientUnits="userSpaceOnUse">
<stop stop-color="#24C74B"/>
<stop offset="1" stop-color="#54F079"/>
</linearGradient>
</defs>
</svg>
