<svg width="86" height="79" viewBox="0 0 86 79" fill="none" xmlns="http://www.w3.org/2000/svg">
<path fill-rule="evenodd" clip-rule="evenodd" d="M42.4587 0.139405C55.5547 -0.737246 69.3917 2.41995 77.776 12.4801C86.3238 22.7364 87.8556 37.2176 83.9988 49.9823C80.4365 61.772 70.2606 69.6834 58.9753 74.7034C48.17 79.5099 36.1588 80.7071 25.262 76.1103C13.6468 71.2104 3.18402 62.3544 0.564471 50.0628C-2.01849 37.9429 4.65356 26.3469 12.6307 16.8409C20.327 7.66951 30.4859 0.940867 42.4587 0.139405Z" fill="url(#paint0_linear_28_66)"/>
<path d="M37.1292 62.9C36.0492 62.9 34.9092 62.82 33.7092 62.66C32.5092 62.54 31.3492 62.36 30.2292 62.12C29.1092 61.88 28.0892 61.62 27.1692 61.34C26.2492 61.06 25.5292 60.8 25.0092 60.56L26.7492 53.12C27.7892 53.56 29.1092 54.04 30.7092 54.56C32.3492 55.04 34.3692 55.28 36.7692 55.28C39.5292 55.28 41.5492 54.76 42.8292 53.72C44.1092 52.68 44.7492 51.28 44.7492 49.52C44.7492 48.44 44.5092 47.54 44.0292 46.82C43.5892 46.06 42.9692 45.46 42.1692 45.02C41.3692 44.54 40.4092 44.22 39.2892 44.06C38.2092 43.86 37.0492 43.76 35.8092 43.76H32.3292V36.56H36.2892C37.1692 36.56 38.0092 36.48 38.8092 36.32C39.6492 36.16 40.3892 35.9 41.0292 35.54C41.6692 35.14 42.1692 34.62 42.5292 33.98C42.9292 33.3 43.1292 32.46 43.1292 31.46C43.1292 30.7 42.9692 30.04 42.6492 29.48C42.3292 28.92 41.9092 28.46 41.3892 28.1C40.9092 27.74 40.3292 27.48 39.6492 27.32C39.0092 27.12 38.3492 27.02 37.6692 27.02C35.9492 27.02 34.3492 27.28 32.8692 27.8C31.4292 28.32 30.1092 28.96 28.9092 29.72L25.7292 23.18C26.3692 22.78 27.1092 22.36 27.9492 21.92C28.8292 21.48 29.7892 21.08 30.8292 20.72C31.8692 20.36 32.9692 20.06 34.1292 19.82C35.3292 19.58 36.5892 19.46 37.9092 19.46C40.3492 19.46 42.4492 19.76 44.2092 20.36C46.0092 20.92 47.4892 21.74 48.6492 22.82C49.8092 23.86 50.6692 25.1 51.2292 26.54C51.7892 27.94 52.0692 29.48 52.0692 31.16C52.0692 32.8 51.6092 34.4 50.6892 35.96C49.7692 37.48 48.5292 38.64 46.9692 39.44C49.1292 40.32 50.7892 41.64 51.9492 43.4C53.1492 45.12 53.7492 47.2 53.7492 49.64C53.7492 51.56 53.4292 53.34 52.7892 54.98C52.1492 56.58 51.1492 57.98 49.7892 59.18C48.4292 60.34 46.6892 61.26 44.5692 61.94C42.4892 62.58 40.0092 62.9 37.1292 62.9Z" fill="white"/>
<defs>
<linearGradient id="paint0_linear_28_66" x1="3.70199" y1="23.7" x2="89.0732" y2="25.534" gradientUnits="userSpaceOnUse">
<stop stop-color="#24C74B"/>
<stop offset="1" stop-color="#54F079"/>
</linearGradient>
</defs>
</svg>
