<svg width="87" height="50" viewBox="0 0 87 50" fill="none" xmlns="http://www.w3.org/2000/svg">
<g filter="url(#filter0_d_26_51)">
<path d="M86 24.5C86 38.0301 74.9981 49 61.4286 49C47.859 49 36.8571 38.0301 36.8571 24.5C36.8571 17.738 31.3531 12.25 24.5714 12.25C17.7897 12.25 12.2857 17.738 12.2857 24.5C12.2857 31.262 17.7897 36.75 24.5714 36.75C25.3209 36.75 26.0457 36.6581 26.7583 36.5295C28.165 40.5536 30.2351 44.2164 32.8643 47.4688C30.2659 48.3997 27.5016 49 24.5714 49C11.0019 49 0 38.0301 0 24.5C0 10.9699 11.0019 0 24.5714 0C38.141 0 49.1429 10.9699 49.1429 24.5C49.1429 31.262 54.6469 36.75 61.4286 36.75C68.2103 36.75 73.7143 31.262 73.7143 24.5C73.7143 17.738 68.2103 12.25 61.4286 12.25C60.6791 12.25 59.9543 12.3419 59.2417 12.4705C57.835 8.44637 55.771 4.78363 53.1357 1.53125C55.7341 0.60025 58.4984 0 61.4286 0C74.9981 0 86 10.9699 86 24.5Z" fill="url(#paint0_linear_26_51)"/>
</g>
<g filter="url(#filter1_d_26_51)">
<path d="M21.5699 14.9586V34.3109H17.5824V14.9586H21.5699ZM33.16 14.9586L25.4909 24.5151L21.0648 29.2735L20.3471 25.4987L23.3376 21.4049L28.2688 14.9586H33.16ZM28.6276 34.3109L22.9256 25.3658L25.8763 22.8936L33.3461 34.3109H28.6276Z" fill="url(#paint1_linear_26_51)"/>
</g>
<g filter="url(#filter2_d_26_51)">
<path d="M58.314 14.9586V34.3109H54.3266V14.9586H58.314ZM69.9042 14.9586L62.235 24.5151L57.8089 29.2735L57.0912 25.4987L60.0818 21.4049L65.0129 14.9586H69.9042ZM65.3718 34.3109L59.6697 25.3658L62.6204 22.8936L70.0902 34.3109H65.3718Z" fill="url(#paint2_linear_26_51)"/>
</g>
<defs>
<filter id="filter0_d_26_51" x="0" y="0" width="86.8166" height="49.8166" filterUnits="userSpaceOnUse" color-interpolation-filters="sRGB">
<feFlood flood-opacity="0" result="BackgroundImageFix"/>
<feColorMatrix in="SourceAlpha" type="matrix" values="0 0 0 0 0 0 0 0 0 0 0 0 0 0 0 0 0 0 127 0" result="hardAlpha"/>
<feOffset dx="0.544418" dy="0.544418"/>
<feGaussianBlur stdDeviation="0.136105"/>
<feComposite in2="hardAlpha" operator="out"/>
<feColorMatrix type="matrix" values="0 0 0 0 0 0 0 0 0 0 0 0 0 0 0 0 0 0 0.25 0"/>
<feBlend mode="normal" in2="BackgroundImageFix" result="effect1_dropShadow_26_51"/>
<feBlend mode="normal" in="SourceGraphic" in2="effect1_dropShadow_26_51" result="shape"/>
</filter>
<filter id="filter1_d_26_51" x="17.5825" y="14.9586" width="16.5803" height="20.169" filterUnits="userSpaceOnUse" color-interpolation-filters="sRGB">
<feFlood flood-opacity="0" result="BackgroundImageFix"/>
<feColorMatrix in="SourceAlpha" type="matrix" values="0 0 0 0 0 0 0 0 0 0 0 0 0 0 0 0 0 0 127 0" result="hardAlpha"/>
<feOffset dx="0.544418" dy="0.544418"/>
<feGaussianBlur stdDeviation="0.136105"/>
<feComposite in2="hardAlpha" operator="out"/>
<feColorMatrix type="matrix" values="0 0 0 0 0 0 0 0 0 0 0 0 0 0 0 0 0 0 0.25 0"/>
<feBlend mode="normal" in2="BackgroundImageFix" result="effect1_dropShadow_26_51"/>
<feBlend mode="normal" in="SourceGraphic" in2="effect1_dropShadow_26_51" result="shape"/>
</filter>
<filter id="filter2_d_26_51" x="54.3267" y="14.9586" width="16.5803" height="20.169" filterUnits="userSpaceOnUse" color-interpolation-filters="sRGB">
<feFlood flood-opacity="0" result="BackgroundImageFix"/>
<feColorMatrix in="SourceAlpha" type="matrix" values="0 0 0 0 0 0 0 0 0 0 0 0 0 0 0 0 0 0 127 0" result="hardAlpha"/>
<feOffset dx="0.544418" dy="0.544418"/>
<feGaussianBlur stdDeviation="0.136105"/>
<feComposite in2="hardAlpha" operator="out"/>
<feColorMatrix type="matrix" values="0 0 0 0 0 0 0 0 0 0 0 0 0 0 0 0 0 0 0.25 0"/>
<feBlend mode="normal" in2="BackgroundImageFix" result="effect1_dropShadow_26_51"/>
<feBlend mode="normal" in="SourceGraphic" in2="effect1_dropShadow_26_51" result="shape"/>
</filter>
<linearGradient id="paint0_linear_26_51" x1="43.0302" y1="49.015" x2="43.0302" y2="-0.0150395" gradientUnits="userSpaceOnUse">
<stop stop-color="#54F079"/>
<stop offset="1" stop-color="#24C74A"/>
</linearGradient>
<linearGradient id="paint1_linear_26_51" x1="24.5124" y1="31.7537" x2="24.5124" y2="17.3065" gradientUnits="userSpaceOnUse">
<stop stop-color="#54F079"/>
<stop offset="1" stop-color="#24C74A"/>
</linearGradient>
<linearGradient id="paint2_linear_26_51" x1="61.2565" y1="31.7537" x2="61.2565" y2="17.3065" gradientUnits="userSpaceOnUse">
<stop stop-color="#54F079"/>
<stop offset="1" stop-color="#24C74A"/>
</linearGradient>
</defs>
</svg>
