<svg width="1777" height="1629" viewBox="0 0 1777 1629" fill="none" xmlns="http://www.w3.org/2000/svg">
<path d="M1527.19 814.5C1527.19 1039.4 1344.84 1221.75 1119.94 1221.75C895.034 1221.75 712.688 1039.4 712.688 814.5C712.688 702.099 621.464 610.875 509.062 610.875C396.661 610.875 305.438 702.099 305.438 814.5C305.438 926.901 396.661 1018.12 509.062 1018.12C521.484 1018.12 533.498 1016.6 545.308 1014.46C568.623 1081.35 602.934 1142.23 646.509 1196.3C603.443 1211.77 557.627 1221.75 509.062 1221.75C284.159 1221.75 101.812 1039.4 101.812 814.5C101.812 589.596 284.159 407.25 509.062 407.25C733.966 407.25 916.312 589.596 916.312 814.5C916.312 926.901 1007.54 1018.12 1119.94 1018.12C1232.34 1018.12 1323.56 926.901 1323.56 814.5C1323.56 702.099 1232.34 610.875 1119.94 610.875C1107.52 610.875 1095.5 612.402 1083.69 614.54C1060.38 547.649 1026.17 486.766 982.491 432.703C1025.56 417.228 1071.37 407.25 1119.94 407.25C1344.84 407.25 1527.19 589.596 1527.19 814.5Z" fill="url(#paint0_linear_24_19)"/>
<path d="M464.836 667.625V952H406.242V667.625H464.836ZM635.148 667.625L522.453 808.055L457.414 877.977L446.867 822.508L490.812 762.352L563.273 667.625H635.148ZM568.547 952L484.758 820.555L528.117 784.227L637.883 952H568.547Z" fill="url(#paint1_linear_24_19)"/>
<path d="M1073.84 667.625V952H1015.24V667.625H1073.84ZM1244.15 667.625L1131.45 808.055L1066.41 877.977L1055.87 822.508L1099.81 762.352L1172.27 667.625H1244.15ZM1177.55 952L1093.76 820.555L1137.12 784.227L1246.88 952H1177.55Z" fill="url(#paint2_linear_24_19)"/>
<defs>
<linearGradient id="paint0_linear_24_19" x1="815" y1="1222" x2="815" y2="407" gradientUnits="userSpaceOnUse">
<stop stop-color="#54F079"/>
<stop offset="1" stop-color="#24C74A"/>
</linearGradient>
<linearGradient id="paint1_linear_24_19" x1="508.084" y1="935.074" x2="508.084" y2="694.926" gradientUnits="userSpaceOnUse">
<stop stop-color="#54F079"/>
<stop offset="1" stop-color="#24C74A"/>
</linearGradient>
<linearGradient id="paint2_linear_24_19" x1="1117.08" y1="935.074" x2="1117.08" y2="694.926" gradientUnits="userSpaceOnUse">
<stop stop-color="#54F079"/>
<stop offset="1" stop-color="#24C74A"/>
</linearGradient>
</defs>
</svg>
