<svg width="64" height="38" viewBox="0 0 64 38" fill="none" xmlns="http://www.w3.org/2000/svg">
<path d="M32.3362 33.0001C36.1362 29.5001 38.5363 24.5001 38.5363 19.0001C38.5363 13.4001 36.1362 8.4001 32.3362 5.0001C28.9362 2.0001 24.5362 0.100098 19.6362 0.100098C9.13623 0.100098 0.63623 8.6001 0.63623 19.0001C0.63623 29.5001 9.13623 38.0001 19.6362 38.0001C24.5362 37.9001 28.9362 36.0001 32.3362 33.0001Z" fill="#3362AB"/>
<path d="M32.3364 33C36.1364 29.5 38.5364 24.5 38.5364 19C38.5364 13.4 36.1364 8.4 32.3364 5" fill="#3362AB"/>
<path d="M32.3364 33C36.1364 29.5 38.5364 24.5 38.5364 19C38.5364 13.4 36.1364 8.4 32.3364 5" stroke="#3362AB" stroke-width="0.3097"/>
<path d="M45.036 0C40.136 0 35.636 1.89999 32.336 4.89999C31.636 5.49999 31.036 6.19999 30.436 6.89999H34.236C34.736 7.49999 35.236 8.19999 35.636 8.89999H28.936C28.536 9.49999 28.136 10.2 27.836 10.9H36.736C37.036 11.6 37.336 12.2 37.536 12.9H27.036C26.836 13.6 26.636 14.2 26.436 14.9H38.036C38.336 16.2 38.436 17.5 38.436 18.9C38.436 21 38.136 23 37.436 24.9H26.936C27.136 25.6 27.436 26.3 27.736 26.9H36.636C36.336 27.6 35.936 28.3 35.536 28.9H28.836C29.236 29.6 29.736 30.3 30.236 30.9H34.036C33.436 31.6 32.836 32.3 32.136 32.9C35.536 35.9 39.936 37.8 44.836 37.8C55.336 37.8 63.736 29.3 63.736 18.8C64.036 8.5 55.536 0 45.036 0Z" fill="#C9191B"/>
<path d="M17.2361 23.6H14.8361L16.2361 16.2L13.0361 23.6H10.9361L10.5361 16.3L9.13611 23.6H7.03613L8.83612 14H12.5361L12.7361 20L15.3361 14H19.1361L17.2361 23.6Z" fill="white"/>
<path d="M43.6361 23.6001C43.0361 23.8001 42.4361 23.9001 41.9361 23.9001C40.7361 23.9001 40.0361 23.3001 40.0361 22.2001C40.0361 22.0001 40.0361 21.7001 40.1361 21.5001L40.2361 20.7001L40.3361 20.1001L41.4361 14.1001H43.7361L43.4361 15.9001H44.6361L44.3361 17.8001H43.1361L42.5361 21.1001C42.5361 21.2001 42.5361 21.4001 42.5361 21.4001C42.5361 21.8001 42.8361 22.0001 43.3361 22.0001C43.6361 22.0001 43.8361 22.0001 43.9361 21.9001L43.6361 23.6001Z" fill="white"/>
<path d="M50.436 15.9C50.236 15.8 50.236 15.8 50.136 15.8C50.036 15.8 49.936 15.8 49.936 15.8C49.836 15.8 49.736 15.8 49.636 15.8C48.836 15.8 48.336 16.1 47.536 17.1L47.736 15.9H45.836L44.436 23.7H46.836C47.636 18.9 48.036 18.1 49.136 18.1C49.236 18.1 49.336 18.1 49.436 18.1L49.736 18.2L50.436 15.9Z" fill="white"/>
<path d="M34.2364 18.3C34.2364 19.3 34.8364 20 36.0364 20.5C37.0364 20.9 37.1364 20.9999 37.1364 21.3999C37.1364 21.8999 36.7364 22.0999 35.7364 22.0999C35.0364 22.0999 34.3364 22 33.6364 21.8L33.3364 23.5999H33.4364L33.8364 23.7C33.9364 23.7 34.2364 23.8 34.4364 23.8C35.0364 23.8 35.4364 23.8999 35.7364 23.8999C38.2364 23.8999 39.4364 23.1 39.4364 21.3C39.4364 20.2 38.9364 19.5999 37.7364 19.0999C36.7364 18.6999 36.6364 18.6 36.6364 18.2C36.6364 17.8 37.0364 17.5999 37.8364 17.5999C38.3364 17.5999 38.9364 17.6 39.5364 17.7L39.8364 15.8999C39.2364 15.7999 38.3364 15.7 37.7364 15.7C35.1364 15.7 34.2364 16.9 34.2364 18.3Z" fill="white"/>
<path d="M23.236 20.2C22.936 20.2 22.836 20.2 22.736 20.2C21.436 20.2 20.736 20.5999 20.736 21.3999C20.736 21.8999 21.036 22.2 21.536 22.2C22.436 22.1 23.136 21.3 23.236 20.2ZM24.936 23.5999H22.936L23.036 22.8C22.436 23.4 21.636 23.7 20.536 23.7C19.236 23.7 18.436 22.7999 18.436 21.5999C18.436 19.6999 19.936 18.5999 22.536 18.5999C22.836 18.5999 23.136 18.6 23.536 18.7C23.636 18.4 23.636 18.3 23.636 18.2C23.636 17.7 23.236 17.5 22.136 17.5C21.436 17.5 20.736 17.6 20.236 17.7L19.936 17.8L19.736 17.8999L20.036 16.0999C21.236 15.7999 21.936 15.7 22.836 15.7C24.836 15.7 25.936 16.5 25.936 18C25.936 18.4 25.936 18.7 25.736 19.5L25.236 22.3L25.136 22.8L25.036 23.2V23.5L24.936 23.5999Z" fill="white"/>
<path d="M31.4363 18.8001C31.4363 18.6001 31.4363 18.5001 31.4363 18.4001C31.4363 17.8001 31.0363 17.4001 30.3363 17.4001C29.5363 17.4001 29.0363 17.9001 28.8363 18.8001H31.4363ZM32.6363 23.5001C31.8363 23.7001 31.0363 23.8001 30.2363 23.8001C27.6363 23.8001 26.2363 22.6001 26.2363 20.3001C26.2363 17.6001 27.9363 15.6001 30.3363 15.6001C32.2363 15.6001 33.5363 16.7001 33.5363 18.4001C33.5363 19.0001 33.4363 19.5001 33.2363 20.3001H28.5363C28.5363 20.4001 28.5363 20.5001 28.5363 20.5001C28.5363 21.4001 29.2363 21.9001 30.6363 21.9001C31.4363 21.9001 32.2363 21.7001 33.1363 21.4001L32.6363 23.5001Z" fill="white"/>
<path d="M55.3361 19.0999C55.3361 18.2999 55.0361 17.5 54.0361 17.5C52.8361 17.5 52.1361 18.9 52.1361 20.2C52.1361 21.3 52.6361 22 53.5361 22C54.0361 22 55.1361 21.2999 55.3361 20.0999C55.3361 19.7999 55.3361 19.3999 55.3361 19.0999ZM57.8361 20.0999C57.4361 22.6999 55.6361 23.8999 53.2361 23.8999C50.5361 23.8999 49.5361 22.3 49.5361 20.3C49.5361 17.5 51.3361 15.7 54.1361 15.7C56.6361 15.7 57.8361 17.2 57.8361 19.2C57.9361 19.6 57.9361 19.5999 57.8361 20.0999Z" fill="white"/>
</svg>
