<svg width="42" height="43" viewBox="0 0 42 43" fill="none" xmlns="http://www.w3.org/2000/svg">
<path d="M32.3998 26.4999C33.0998 26.7999 33.3998 27.7999 33.3998 28.2999C33.4998 29.0999 33.2998 29.4999 32.9998 29.4999C32.6998 29.4999 32.2998 29.1999 31.8998 28.4999C31.4998 27.7999 31.2998 27.0999 31.4998 26.6999C31.7998 26.4999 32.0998 26.3999 32.3998 26.4999Z" fill="#F28A1A"/>
<path d="M28.3001 29.6001C28.7001 29.6001 29.2001 29.8001 29.7001 30.2001C30.5001 30.9001 30.8001 31.7001 30.4001 32.3001C30.2001 32.6001 29.7001 32.8001 29.3001 32.8001C28.8001 32.8001 28.3001 32.6001 28.0001 32.3001C27.2001 31.6001 27.0001 30.6001 27.5001 30.0001C27.6001 29.8001 27.9001 29.6001 28.3001 29.6001Z" fill="#F28A1A"/>
<path d="M18.8 37.5C8.4 37.5 0 29.1 0 18.8C0 8.5 8.4 0 18.8 0C29.2 0 37.6 8.4 37.6 18.8C37.6 22.3 36.6 25.6 35 28.4C34.9 28.5 34.8 28.5 34.8 28.3C34.1 23.7 31.3 21.2 27.3 20.4C26.9 20.3 26.9 20.1 27.4 20.1C28.7 20 30.4 20 31.4 20.2C31.5 19.7 31.5 19.2 31.5 18.8C31.5 12 25.9 6.4 19.1 6.4C12.3 6.4 6.7 12 6.7 18.8C6.7 25.6 12.3 31.2 19.1 31.2H19.7C19.5 30.1 19.4 29 19.5 27.8C19.5 27 19.7 26.9 20 27.5C21.7 30.5 24.2 33.1 29 34.2C32.9 35.1 36.8 36.1 41.1 41.4C41.5 41.9 40.9 42.4 40.5 42C36.2 38.2 32.3 36.9 28.7 36.9C24.2 37 21.5 37.5 18.8 37.5Z" fill="#F28A1A"/>
</svg>
