<svg width="74" height="20" viewBox="0 0 74 20" fill="none" xmlns="http://www.w3.org/2000/svg">
<path d="M10.3336 0.750122L13.1922 6.83858L19.5836 7.82536L14.9586 12.5619L16.0551 19.2501L10.3391 16.0891L4.61651 19.2479L5.713 12.5597L1.08362 7.82098L7.47507 6.83419L10.3336 0.750122Z" fill="#24C74B"/>
<path d="M37.0001 0.750122L39.8587 6.83858L46.2501 7.82536L41.6251 12.5619L42.7216 19.2501L37.0056 16.0891L31.283 19.2479L32.3795 12.5597L27.7501 7.82098L34.1416 6.83419L37.0001 0.750122Z" fill="#24C74B"/>
<path d="M63.6669 0.750122L66.5254 6.83858L72.9169 7.82536L68.2919 12.5619L69.3884 19.2501L63.6724 16.0891L57.9498 19.2479L59.0463 12.5597L54.4169 7.82098L60.8083 6.83419L63.6669 0.750122Z" fill="#24C74B"/>
</svg>
