<svg width="69" height="21" viewBox="0 0 69 21" fill="none" xmlns="http://www.w3.org/2000/svg">
<path d="M64.0319 0.300049H59.7319C58.4319 0.300049 57.4319 0.700049 56.8319 2.00005L48.6319 20.7H54.4319C54.4319 20.7 55.4319 18.2001 55.6319 17.6C56.2319 17.6 61.9319 17.6 62.7319 17.6C62.9319 18.3001 63.4319 20.6 63.4319 20.6H68.6319L64.0319 0.300049ZM57.2319 13.4C57.7319 12.2 59.4319 7.70005 59.4319 7.70005C59.4319 7.80005 59.9319 6.50005 60.1319 5.80005L60.5319 7.60005C60.5319 7.60005 61.6319 12.5 61.8319 13.5H57.2319V13.4Z" fill="#3362AB"/>
<path d="M49.0319 14C49.0319 18.2 45.2319 21 39.3319 21C36.8319 21 34.4319 20.5 33.1319 19.9L33.9319 15.3L34.6319 15.6C36.4319 16.4 37.6319 16.7 39.8319 16.7C41.4319 16.7 43.1319 16.1 43.1319 14.7C43.1319 13.8 42.4319 13.2 40.2319 12.2C38.1319 11.2 35.3319 9.6 35.3319 6.7C35.3319 2.7 39.2319 0 44.7319 0C46.8319 0 48.6319 0.4 49.7319 0.9L48.9319 5.3L48.5319 4.9C47.5319 4.5 46.2319 4.1 44.3319 4.1C42.2319 4.2 41.2319 5.1 41.2319 5.9C41.2319 6.8 42.4319 7.5 44.3319 8.4C47.5319 9.9 49.0319 11.6 49.0319 14Z" fill="#3362AB"/>
<path d="M0.231934 0.500098L0.331934 0.100098H8.93193C10.1319 0.100098 11.0319 0.500098 11.3319 1.8001L13.2319 10.8001C11.3319 6.0001 6.93193 2.1001 0.231934 0.500098Z" fill="#F9B50B"/>
<path d="M25.3319 0.299951L16.6319 20.6H10.7319L5.73193 3.59995C9.33193 5.89995 12.3319 9.49995 13.4319 12L14.0319 14.1L19.4319 0.199951H25.3319V0.299951Z" fill="#3362AB"/>
<path d="M27.6319 0.199951H33.1319L29.6319 20.6H24.1319L27.6319 0.199951Z" fill="#3362AB"/>
</svg>
